<svg width="56" height="27" viewBox="0 0 56 27" fill="none" xmlns="http://www.w3.org/2000/svg">
<rect y="0.5625" width="56" height="26" rx="13" fill="#F3F3F3"/>
<path d="M15.7553 21.8389C14.602 21.8388 13.4753 21.4922 12.5213 20.844C11.5672 20.1959 10.83 19.2761 10.405 18.2039C9.98001 17.1317 9.88695 15.9566 10.1379 14.8308C10.3888 13.7051 10.9721 12.6807 11.8122 11.8905C12.8421 10.9212 15.3716 9.17608 14.9879 5.33887C19.5925 8.40863 21.8949 11.4784 17.2902 16.0831C18.0576 16.0831 19.2088 16.0831 21.1274 14.1875C21.3346 14.7807 21.5111 15.4184 21.5111 16.0831C21.5111 17.6096 20.9047 19.0736 19.8253 20.153C18.7459 21.2325 17.2819 21.8389 15.7553 21.8389Z" fill="#FF4545"/>
<path d="M28.0133 12.585C28.2173 12.585 28.3844 12.5609 28.5148 12.5127C28.6479 12.4617 28.7542 12.3952 28.8335 12.313C28.9128 12.2308 28.9681 12.1373 28.9993 12.0325C29.0304 11.9248 29.046 11.8143 29.046 11.701C29.046 11.5763 29.0276 11.4644 28.9908 11.3652C28.9539 11.2661 28.8944 11.1825 28.8123 11.1145C28.7301 11.0437 28.6224 10.9898 28.4893 10.953C28.3589 10.9162 28.1974 10.8977 28.0048 10.8977H26.921V12.585H28.0133ZM26.921 8.36475V10.0307H27.7583C27.9368 10.0307 28.0954 10.0166 28.2343 9.98825C28.3731 9.95708 28.4893 9.90892 28.5828 9.84375C28.6763 9.77858 28.7471 9.69358 28.7953 9.58875C28.8463 9.48108 28.8718 9.35217 28.8718 9.202C28.8718 9.049 28.8505 8.91867 28.808 8.811C28.7683 8.70333 28.706 8.61692 28.621 8.55175C28.536 8.48658 28.4283 8.43983 28.298 8.4115C28.1677 8.38033 28.0133 8.36475 27.8348 8.36475H26.921ZM27.8348 7.39575C28.2484 7.39575 28.6012 7.43542 28.893 7.51475C29.1877 7.59125 29.4271 7.70175 29.6113 7.84625C29.7983 7.98792 29.9343 8.16075 30.0193 8.36475C30.1043 8.56875 30.1468 8.79683 30.1468 9.049C30.1468 9.19067 30.1255 9.32667 30.083 9.457C30.0433 9.58733 29.9796 9.71058 29.8918 9.82675C29.8068 9.94008 29.6963 10.0435 29.5603 10.137C29.4243 10.2305 29.2628 10.3098 29.0758 10.375C29.4951 10.4742 29.8053 10.6357 30.0065 10.8595C30.2077 11.0833 30.3083 11.3737 30.3083 11.7307C30.3083 11.9914 30.2573 12.2337 30.1553 12.4575C30.0561 12.6813 29.9102 12.8754 29.7175 13.0397C29.5248 13.2041 29.2868 13.333 29.0035 13.4265C28.723 13.5172 28.4 13.5625 28.0345 13.5625H25.646V7.39575H27.8348ZM32.5657 8.3945V9.97975H34.6227V10.9445H32.5657V12.5637H35.2092V13.5625H31.2822V7.39575H35.2092V8.3945H32.5657ZM39.5036 8.57725C39.4639 8.64242 39.4228 8.69058 39.3803 8.72175C39.3407 8.75008 39.2883 8.76425 39.2231 8.76425C39.1608 8.76425 39.0928 8.743 39.0191 8.7005C38.9483 8.65517 38.8647 8.607 38.7683 8.556C38.672 8.505 38.5615 8.45825 38.4368 8.41575C38.3122 8.37042 38.1663 8.34775 37.9991 8.34775C37.7044 8.34775 37.4834 8.41433 37.3361 8.5475C37.1888 8.67783 37.1151 8.84925 37.1151 9.06175C37.1151 9.19775 37.1548 9.31108 37.2341 9.40175C37.3163 9.48958 37.4225 9.56608 37.5528 9.63125C37.686 9.69642 37.8362 9.7545 38.0033 9.8055C38.1705 9.8565 38.3419 9.91317 38.5176 9.9755C38.6933 10.035 38.8647 10.1058 39.0318 10.188C39.199 10.2702 39.3478 10.3736 39.4781 10.4982C39.6113 10.6229 39.7175 10.7759 39.7968 10.9572C39.879 11.1357 39.9201 11.3539 39.9201 11.6117C39.9201 11.8922 39.8705 12.1557 39.7713 12.4022C39.675 12.6459 39.5348 12.8598 39.3506 13.044C39.1664 13.2253 38.9383 13.3684 38.6663 13.4732C38.3972 13.5781 38.0912 13.6305 37.7483 13.6305C37.5528 13.6305 37.3573 13.6107 37.1618 13.571C36.9692 13.5313 36.7822 13.4761 36.6008 13.4052C36.4223 13.3344 36.2538 13.2494 36.0951 13.1502C35.9364 13.0511 35.7976 12.9406 35.6786 12.8187L36.0526 12.2152C36.0838 12.1699 36.1248 12.1331 36.1758 12.1047C36.2268 12.0736 36.2807 12.058 36.3373 12.058C36.4138 12.058 36.4946 12.0863 36.5796 12.143C36.6646 12.1997 36.7623 12.262 36.8728 12.33C36.9833 12.398 37.1108 12.4603 37.2553 12.517C37.4027 12.5737 37.5783 12.602 37.7823 12.602C38.0798 12.602 38.3093 12.534 38.4708 12.398C38.6352 12.262 38.7173 12.0594 38.7173 11.7902C38.7173 11.6344 38.6763 11.5083 38.5941 11.412C38.5148 11.3157 38.4099 11.2349 38.2796 11.1697C38.1493 11.1046 38.0005 11.0493 37.8333 11.004C37.6662 10.9558 37.4948 10.9034 37.3191 10.8467C37.1434 10.7901 36.972 10.7221 36.8048 10.6427C36.6377 10.5634 36.4889 10.4586 36.3586 10.3282C36.2283 10.1979 36.122 10.0364 36.0398 9.84375C35.9605 9.65108 35.9208 9.41167 35.9208 9.1255C35.9208 8.896 35.9662 8.67358 36.0568 8.45825C36.1475 8.24292 36.2807 8.05167 36.4563 7.8845C36.632 7.71733 36.8473 7.58275 37.1023 7.48075C37.3602 7.37875 37.6548 7.32775 37.9863 7.32775C38.3575 7.32775 38.7003 7.38583 39.0148 7.502C39.3322 7.61533 39.5999 7.774 39.8181 7.978L39.5036 8.57725ZM45.2095 8.42425H43.4075V13.5625H42.1282V8.42425H40.3262V7.39575H45.2095V8.42425ZM27.814 17.0435C27.786 17.0895 27.757 17.1235 27.727 17.1455C27.699 17.1655 27.662 17.1755 27.616 17.1755C27.572 17.1755 27.524 17.1605 27.472 17.1305C27.422 17.0985 27.363 17.0645 27.295 17.0285C27.227 16.9925 27.149 16.9595 27.061 16.9295C26.973 16.8975 26.87 16.8815 26.752 16.8815C26.544 16.8815 26.388 16.9285 26.284 17.0225C26.18 17.1145 26.128 17.2355 26.128 17.3855C26.128 17.4815 26.156 17.5615 26.212 17.6255C26.27 17.6875 26.345 17.7415 26.437 17.7875C26.531 17.8335 26.637 17.8745 26.755 17.9105C26.873 17.9465 26.994 17.9865 27.118 18.0305C27.242 18.0725 27.363 18.1225 27.481 18.1805C27.599 18.2385 27.704 18.3115 27.796 18.3995C27.89 18.4875 27.965 18.5955 28.021 18.7235C28.079 18.8495 28.108 19.0035 28.108 19.1855C28.108 19.3835 28.073 19.5695 28.003 19.7435C27.935 19.9155 27.836 20.0665 27.706 20.1965C27.576 20.3245 27.415 20.4255 27.223 20.4995C27.033 20.5735 26.817 20.6105 26.575 20.6105C26.437 20.6105 26.299 20.5965 26.161 20.5685C26.025 20.5405 25.893 20.5015 25.765 20.4515C25.639 20.4015 25.52 20.3415 25.408 20.2715C25.296 20.2015 25.198 20.1235 25.114 20.0375L25.378 19.6115C25.4 19.5795 25.429 19.5535 25.465 19.5335C25.501 19.5115 25.539 19.5005 25.579 19.5005C25.633 19.5005 25.69 19.5205 25.75 19.5605C25.81 19.6005 25.879 19.6445 25.957 19.6925C26.035 19.7405 26.125 19.7845 26.227 19.8245C26.331 19.8645 26.455 19.8845 26.599 19.8845C26.809 19.8845 26.971 19.8365 27.085 19.7405C27.201 19.6445 27.259 19.5015 27.259 19.3115C27.259 19.2015 27.23 19.1125 27.172 19.0445C27.116 18.9765 27.042 18.9195 26.95 18.8735C26.858 18.8275 26.753 18.7885 26.635 18.7565C26.517 18.7225 26.396 18.6855 26.272 18.6455C26.148 18.6055 26.027 18.5575 25.909 18.5015C25.791 18.4455 25.686 18.3715 25.594 18.2795C25.502 18.1875 25.427 18.0735 25.369 17.9375C25.313 17.8015 25.285 17.6325 25.285 17.4305C25.285 17.2685 25.317 17.1115 25.381 16.9595C25.445 16.8075 25.539 16.6725 25.663 16.5545C25.787 16.4365 25.939 16.3415 26.119 16.2695C26.301 16.1975 26.509 16.1615 26.743 16.1615C27.005 16.1615 27.247 16.2025 27.469 16.2845C27.693 16.3645 27.882 16.4765 28.036 16.6205L27.814 17.0435ZM29.6667 16.9145V18.0335H31.1187V18.7145H29.6667V19.8575H31.5327V20.5625H28.7607V16.2095H31.5327V16.9145H29.6667ZM34.789 19.8305V20.5625H32.206V16.2095H33.106V19.8305H34.789ZM37.9238 19.8305V20.5625H35.3408V16.2095H36.2408V19.8305H37.9238ZM39.3815 16.9145V18.0335H40.8335V18.7145H39.3815V19.8575H41.2475V20.5625H38.4755V16.2095H41.2475V16.9145H39.3815ZM43.2828 18.2705C43.4288 18.2705 43.5548 18.2525 43.6608 18.2165C43.7668 18.1785 43.8538 18.1275 43.9218 18.0635C43.9898 17.9975 44.0398 17.9205 44.0718 17.8325C44.1038 17.7445 44.1198 17.6485 44.1198 17.5445C44.1198 17.3385 44.0508 17.1785 43.9128 17.0645C43.7768 16.9505 43.5688 16.8935 43.2888 16.8935H42.8208V18.2705H43.2828ZM45.3918 20.5625H44.5788C44.4268 20.5625 44.3168 20.5045 44.2488 20.3885L43.4208 19.0535C43.3868 19.0015 43.3488 18.9635 43.3068 18.9395C43.2668 18.9155 43.2068 18.9035 43.1268 18.9035H42.8208V20.5625H41.9208V16.2095H43.2888C43.5928 16.2095 43.8528 16.2415 44.0688 16.3055C44.2848 16.3675 44.4618 16.4545 44.5998 16.5665C44.7378 16.6785 44.8388 16.8125 44.9028 16.9685C44.9668 17.1225 44.9988 17.2925 44.9988 17.4785C44.9988 17.6225 44.9778 17.7595 44.9358 17.8895C44.8958 18.0175 44.8368 18.1345 44.7588 18.2405C44.6808 18.3465 44.5848 18.4405 44.4708 18.5225C44.3568 18.6045 44.2268 18.6705 44.0808 18.7205C44.1388 18.7525 44.1928 18.7915 44.2428 18.8375C44.2928 18.8815 44.3378 18.9345 44.3778 18.9965L45.3918 20.5625Z" fill="#FF4545"/>
</svg>
